<svg xmlns="http://www.w3.org/2000/svg" viewBox="0 0 24 24" fill="none" stroke="currentColor" stroke-width="1.5" stroke-linecap="round" stroke-linejoin="round">
  <!-- Muse profile silhouette - simplified for Obsidian ribbon -->
  <!-- Head outline -->
  <path d="M12 3c-1.5 0-2.8.6-3.6 1.5C7.5 5.5 7 7 7 8.5c0 1 .2 1.8.5 2.5l-.5 2c-.2.8-.5 1.5-.5 2 0 1.5 1 2.5 2 3l.5.5v2.5h6v-2.5l.5-.5c1-.5 2-1.5 2-3 0-.5-.3-1.2-.5-2l-.5-2c.3-.7.5-1.5.5-2.5 0-1.5-.5-3-1.4-4C14.8 3.6 13.5 3 12 3z"/>
  <!-- Laurel wreath left -->
  <path d="M7.5 6c-.8.3-1.5 1-1.8 1.8"/>
  <path d="M6.5 8.5c-.5.5-.8 1.2-.8 1.8"/>
  <path d="M6.2 11c-.2.5-.2 1 0 1.5"/>
  <!-- Laurel wreath right -->
  <path d="M14 4.5c.8-.2 1.5 0 2 .5"/>
  <path d="M16.5 6c.5.5.8 1 .8 1.5"/>
  <!-- Neural network nodes -->
  <circle cx="9" cy="7" r=".7" fill="currentColor" stroke="none"/>
  <circle cx="11" cy="5.5" r=".7" fill="currentColor" stroke="none"/>
  <circle cx="8" cy="9.5" r=".7" fill="currentColor" stroke="none"/>
  <circle cx="10.5" cy="8" r=".7" fill="currentColor" stroke="none"/>
  <!-- Neural connections -->
  <line x1="9" y1="7" x2="11" y2="5.5" stroke-width=".7"/>
  <line x1="9" y1="7" x2="8" y2="9.5" stroke-width=".7"/>
  <line x1="9" y1="7" x2="10.5" y2="8" stroke-width=".7"/>
  <line x1="11" y1="5.5" x2="10.5" y2="8" stroke-width=".7"/>
</svg>
